<?xml version="1.0" encoding="UTF-8"?>
<svg id="uuid-28c56cc1-a752-4bbe-b3c6-5f858697a2f4" data-name="Layer 1" xmlns="http://www.w3.org/2000/svg" viewBox="0 0 707.03 216.35">
  <defs>
    <style>
      .uuid-70925d3f-edfd-4a3b-a891-de86797e4f23 {
        fill: #ea4335;
      }

      .uuid-0b6c07bd-0eef-4e29-a717-53ed96dda9eb {
        fill: #03a9f5;
      }

      .uuid-90e5ead5-9d8d-45fe-92fe-b32adb54caad {
        fill: none;
      }

      .uuid-1930e980-6926-4eb8-843e-c5d12b11dbb3 {
        fill: #34a853;
      }

      .uuid-535b2fcb-3649-4bd3-8149-b65204545323 {
        fill: #fbbc05;
      }
    </style>
  </defs>
  <g>
    <path class="uuid-70925d3f-edfd-4a3b-a891-de86797e4f23" d="M128.62,0C100.21,28.41,54.14,28.41,25.72,0c15.78,15.78,25.72,35.19,29.81,55.54,34.62,6.97,71.97-2.97,98.81-29.81L128.62,0Z"/>
    <path class="uuid-1930e980-6926-4eb8-843e-c5d12b11dbb3" d="M154.35,128.62c-28.41-28.41-28.41-74.48,0-102.9-15.78,15.78-35.19,25.72-55.54,29.81-6.97,34.62,2.97,71.97,29.81,98.81l25.72-25.72Z"/>
    <path class="uuid-535b2fcb-3649-4bd3-8149-b65204545323" d="M25.72,154.35c28.41-28.41,74.48-28.41,102.9,0-15.78-15.78-25.72-35.19-29.81-55.54-34.62-6.97-71.97,2.97-98.81,29.81l25.72,25.72Z"/>
    <path class="uuid-0b6c07bd-0eef-4e29-a717-53ed96dda9eb" d="M0,25.72C28.41,54.14,28.41,100.21,0,128.62c15.78-15.78,35.19-25.72,55.54-29.81C62.51,64.19,52.57,26.84,25.72,0L0,25.72Z"/>
  </g>
  <g>
    <rect class="uuid-90e5ead5-9d8d-45fe-92fe-b32adb54caad" x="180.5" y="9.35" width="198" height="63"/>
    <path d="M184.15,41.22c-1.38-1.47-2.06-3.55-2.06-6.24v-17.66c0-2.69.69-4.77,2.06-6.24,1.38-1.47,3.36-2.21,5.95-2.21s4.58.74,5.95,2.21c1.38,1.47,2.06,3.55,2.06,6.24v17.66c0,2.69-.69,4.77-2.06,6.24-1.38,1.47-3.36,2.21-5.95,2.21s-4.58-.74-5.95-2.21ZM192.83,35.32v-18.34c0-2.21-.91-3.31-2.74-3.31s-2.74,1.1-2.74,3.31v18.34c0,2.21.91,3.31,2.74,3.31s2.74-1.1,2.74-3.31Z"/>
    <path d="M201.67,9.35h6.62l5.14,20.11h.1V9.35h4.7v33.6h-5.42l-6.34-24.53h-.1v24.53h-4.7V9.35Z"/>
    <path d="M222.16,9.35h14.4v4.8h-9.12v8.88h7.25v4.8h-7.25v10.32h9.12v4.8h-14.4V9.35Z"/>
    <path d="M239.58,9.35h8.06c2.62,0,4.59.7,5.9,2.11,1.31,1.41,1.97,3.47,1.97,6.19v16.99c0,2.72-.66,4.78-1.97,6.19-1.31,1.41-3.28,2.11-5.9,2.11h-8.06V9.35ZM247.55,38.15c.86,0,1.53-.26,1.99-.77.46-.51.7-1.34.7-2.5v-17.47c0-1.15-.23-1.98-.7-2.5-.46-.51-1.13-.77-1.99-.77h-2.69v24h2.69Z"/>
    <path d="M260.75,41.22c-1.38-1.47-2.06-3.55-2.06-6.24v-17.66c0-2.69.69-4.77,2.06-6.24,1.38-1.47,3.36-2.21,5.95-2.21s4.58.74,5.95,2.21c1.38,1.47,2.06,3.55,2.06,6.24v17.66c0,2.69-.69,4.77-2.06,6.24-1.38,1.47-3.36,2.21-5.95,2.21s-4.58-.74-5.95-2.21ZM269.44,35.32v-18.34c0-2.21-.91-3.31-2.74-3.31s-2.74,1.1-2.74,3.31v18.34c0,2.21.91,3.31,2.74,3.31s2.74-1.1,2.74-3.31Z"/>
    <path d="M282.21,14.15h-5.52v-4.8h16.32v4.8h-5.52v28.8h-5.28V14.15Z"/>
  </g>
  <g>
    <rect class="uuid-90e5ead5-9d8d-45fe-92fe-b32adb54caad" x="181.39" y="65.99" width="525.64" height="150.36"/>
    <path d="M213.61,69.05c6.3,0,11.38,2.19,15.25,6.57,3.87,4.38,5.8,9.66,5.8,15.84,0,3.3-.51,6.27-1.53,8.91-1.02,2.64-2.28,4.74-3.78,6.3-1.5,1.56-3.23,2.87-5.18,3.92-1.95,1.05-3.75,1.77-5.4,2.16-1.65.39-3.23.58-4.73.58h-13.14v25.47c0,.6-.22,1.12-.67,1.58s-1.01.67-1.67.67h-11.97c-.6,0-1.12-.22-1.58-.67s-.67-.97-.67-1.58v-67.5c0-.6.22-1.12.67-1.58s.97-.67,1.58-.67h27ZM213.34,96.77c.36,0,.76-.06,1.21-.18.45-.12.97-.34,1.58-.67.6-.33,1.09-.9,1.48-1.71.39-.81.58-1.79.58-2.92,0-1.5-.44-2.82-1.31-3.96-.87-1.14-2.15-1.71-3.82-1.71h-12.15v11.16h12.42Z"/>
    <path d="M266.17,69.05c5.22,0,10,1.01,14.35,3.01,4.35,2.01,7.96,4.7,10.85,8.06,2.88,3.36,5.13,7.23,6.75,11.61,1.62,4.38,2.43,8.94,2.43,13.68,0,3.9-.44,7.53-1.3,10.89-.87,3.36-2.03,6.24-3.47,8.64-1.44,2.4-3.14,4.54-5.08,6.44-1.95,1.89-3.95,3.44-5.98,4.63-2.04,1.2-4.16,2.19-6.35,2.97-2.19.78-4.22,1.32-6.07,1.62-1.86.3-3.63.45-5.31.45h-24.12c-.6,0-1.12-.22-1.58-.67s-.67-.97-.67-1.58v-67.5c0-.6.22-1.12.67-1.58s.97-.67,1.58-.67h23.31ZM266.98,124.49c.96,0,2.04-.09,3.24-.27,1.2-.18,2.66-.67,4.37-1.49,1.71-.81,3.22-1.86,4.54-3.15,1.32-1.29,2.46-3.16,3.42-5.62.96-2.46,1.44-5.31,1.44-8.55,0-2.46-.36-4.84-1.08-7.16-.72-2.31-1.79-4.42-3.19-6.34-1.41-1.92-3.29-3.45-5.62-4.59-2.34-1.14-4.98-1.71-7.92-1.71h-9v38.88h9.81Z"/>
    <path d="M322.96,85.61v11.16h20.07c.66,0,1.2.23,1.62.67.42.45.63.98.63,1.58v12.06c0,.6-.21,1.12-.63,1.58-.42.45-.96.67-1.62.67h-20.07v25.47c0,.6-.23,1.12-.67,1.58-.45.45-1.01.67-1.67.67h-11.97c-.6,0-1.12-.22-1.58-.67-.45-.45-.67-.97-.67-1.58v-67.5c0-.6.23-1.12.67-1.58.45-.45.97-.67,1.58-.67h38.97c.6,0,1.12.22,1.57.67.45.45.68.98.68,1.58v11.97c0,.66-.23,1.21-.68,1.67-.45.45-.98.67-1.57.67h-24.66Z"/>
  </g>
</svg>